<svg width="24" height="24" fill="none" xmlns="http://www.w3.org/2000/svg"><defs><clipPath id="clip8590_175"><rect id="Icon-Close" rx="-.5" width="23" height="23" transform="translate(.5 .5)" fill="#fff" fill-opacity="0"/></clipPath></defs><rect id="Icon-Close" rx="-.5" width="23" height="23" transform="translate(.5 .5)" fill="#FFF" fill-opacity="0"/><g clip-path="url('#clip8590_175')"><path id="Vector" d="M19.19 6.41c.44-.44.44-1.16 0-1.61-.45-.44-1.17-.44-1.61 0L12 10.38 6.41 4.8c-.44-.44-1.16-.44-1.61 0-.44.45-.44 1.17 0 1.61L10.38 12 4.8 17.58c-.44.44-.44 1.16 0 1.61.45.44 1.17.44 1.61 0L12 13.61l5.58 5.58c.44.44 1.16.44 1.61 0 .44-.45.44-1.17 0-1.61L13.61 12l5.58-5.59Z" fill="#FFF" fill-opacity="1" fill-rule="nonzero"/></g></svg>