<svg width="87" height="62" fill="none" xmlns="http://www.w3.org/2000/svg"><path id="THE MET" d="M18.19 25.1V1.62h5.36c.83.02 1.53.21 2.12.56 1.25.69 1.88 1.86 1.88 3.52v.48h.4V-.79c-.37.16-1.05.32-2.04.48-.96.16-1.85.24-2.68.24H7.11C5.06-.09 3.48-.33 2.39-.79v6.97h.4V5.7c0-1.2.36-2.18 1.08-2.92.72-.75 1.69-1.14 2.92-1.16h5.4v23.52c-.05.66-.33 1.24-.84 1.72-.48.48-1.05.72-1.72.72h-.52v.4h12.16l-.04-.4h-.48c-.69 0-1.29-.24-1.8-.72-.48-.48-.73-1.07-.76-1.76Zm45.69 1.76c-.48.48-1.06.72-1.76.72h-.52v.4h20.72l1.84-8.16h-.4q-.96 3.08-2.96 4.76c-1.3 1.12-2.93 1.68-4.88 1.68h-5.24V15.02h5.36c.96.02 1.75.36 2.36 1 .64.64.96 1.45.96 2.43v.33h.4V9.54h-.4v.35c0 .97-.32 1.78-.96 2.45-.64.64-1.45.97-2.44 1h-5.28V1.7h6.72c.8.02 1.5.21 2.08.56 1.23.69 1.84 1.86 1.84 3.52v.44l.4.04V-.75c-.18.08-.7.23-1.56.44-.85.19-1.93.28-3.24.28H61.6v.4h.52c.67 0 1.32.3 1.96.89.35.32.55.82.6 1.52v22.28c-.02.69-.29 1.29-.8 1.8Zm-14.15.2c-.37.34-.91.52-1.6.52h-.52v.4h12.16v-.4h-.52c-.69 0-1.29-.24-1.8-.72-.51-.51-.76-1.11-.76-1.8V2.9q0-.51.18-.95.19-.45.58-.81c.51-.51 1.11-.77 1.8-.77h.52v-.4H47.61v.4h.52c.69 0 1.28.26 1.76.77.51.48.77 1.06.8 1.76v10.28H37.73V2.9c0-.7.25-1.28.76-1.76.51-.51 1.11-.77 1.8-.77h.48l.04-.4H28.65v.4h.52q.51 0 .94.19.45.19.82.58.39.36.59.81.19.44.21.95v22.16q-.02.45-.17.86-.2.51-.63.94a2.4 2.4 0 0 1-1.76.72h-.52v.4h12.16l-.04-.4h-.48c-.69 0-1.29-.24-1.8-.72-.51-.51-.76-1.11-.76-1.8V14.9h12.96v10.2q0 .11-.02.23-.12.91-.94 1.73ZM76.71 58.1V34.62h5.36c.83.02 1.54.21 2.12.56 1.26.69 1.88 1.86 1.88 3.52v.48h.4v-6.96c-.37.16-1.05.32-2.04.48-.96.16-1.85.23-2.68.23H65.63c-2.05-.02-3.62-.26-4.72-.71v6.96h.4v-.48c0-1.2.36-2.18 1.08-2.92.72-.75 1.7-1.14 2.92-1.16h5.4v23.52c-.05.66-.33 1.24-.84 1.72-.48.48-1.05.72-1.72.72h-.52v.4h12.16l-.04-.4h-.48c-.69 0-1.29-.24-1.8-.72-.48-.48-.73-1.07-.76-1.76Zm-36.13 1.76a2.4 2.4 0 0 1-1.76.72h-.94c-.72 0-1.36-.23-1.92-.68-.54-.46-.87-1.07-1-1.84l-3.4-25.65h-.36L19.28 52.82 6.88 32.41h-.36L3.2 58.06c-.11.77-.44 1.38-1 1.84-.54.45-1.18.68-1.92.68h-.64v.4H8v-.36h-.6c-.46 0-.84-.18-1.16-.52-.32-.38-.46-.78-.4-1.2L7.4 44.5l10.28 17.28h.4c.02-1.31.53-2.79 1.52-4.44l7.52-12.96 1.56 14.52c.05.42-.08.81-.4 1.16-.32.34-.71.53-1.16.56h-.6v.36h32.5l1.84-8.16h-.4c-.64 2.05-1.63 3.64-2.96 4.76-1.31 1.12-2.93 1.68-4.88 1.68h-5.24V48.02h5.36c.96.02 1.75.36 2.36 1 .64.64.96 1.45.96 2.44v.32h.4v-9.24h-.4v.36c0 .96-.32 1.77-.96 2.44-.64.64-1.45.97-2.44 1h-5.28V34.7h6.72c.8.02 1.49.21 2.08.55 1.23.7 1.84 1.87 1.84 3.53v.44l.4.03v-7c-.19.09-.71.23-1.56.45-.85.18-1.93.28-3.24.28H38.3v.4h.52c.67 0 1.32.29 1.96.87.35.33.55.83.6 1.53v22.28c-.03.69-.29 1.29-.8 1.8Z" fill="#FFF" fill-opacity="1" fill-rule="evenodd"/></svg>