<svg width="24" height="24" fill="none" xmlns="http://www.w3.org/2000/svg"><defs><clipPath id="clip8590_195"><path id="Icon-Phone-call" fill="#fff" fill-opacity="0" d="M0 0h24v24H0z"/></clipPath></defs><path id="Icon-Phone-call" fill="#FFF" fill-opacity="0" d="M0 0h24v24H0z"/><g clip-path="url('#clip8590_195')"><path id="Vector" d="M20 15.37c-1.22 0-2.42-.2-3.52-.55a.994.994 0 0 0-1.02.24l-1.56 1.97c-2.83-1.36-5.49-3.91-6.9-6.83l1.95-1.66c.28-.28.35-.67.25-1.02-.37-1.12-.57-2.31-.57-3.54 0-.54-.44-.98-.98-.98H4.19C3.65 3 3 3.23 3 3.98 3 13.28 10.73 21 20 21c.71 0 1-.63 1-1.18v-3.45c0-.54-.46-1-1-1Z" fill="#FFF" fill-opacity="1" fill-rule="nonzero"/></g></svg>